<mxfile host="app.diagrams.net" agent="Mozilla/5.0 (Windows NT 10.0; Win64; x64) AppleWebKit/537.36 (KHTML, like Gecko) Chrome/130.0.0.0 Safari/537.36" version="24.8.3">
  <diagram name="Page-1" id="Y54eElrCPgQWEGQvDmUl">
    <mxGraphModel dx="7300" dy="3230" grid="1" gridSize="10" guides="1" tooltips="1" connect="1" arrows="1" fold="1" page="1" pageScale="1" pageWidth="850" pageHeight="1100" math="0" shadow="0">
      <root>
        <mxCell id="0" />
        <mxCell id="1" parent="0" />
        <mxCell id="47emfWNJjAUyKKDuT6b--5" value="UserId(int)" style="ellipse;whiteSpace=wrap;html=1;" parent="1" vertex="1">
          <mxGeometry x="30" y="-110" width="120" height="80" as="geometry" />
        </mxCell>
        <mxCell id="47emfWNJjAUyKKDuT6b--7" value="UserName(String)" style="ellipse;whiteSpace=wrap;html=1;" parent="1" vertex="1">
          <mxGeometry x="930" y="-30" width="120" height="80" as="geometry" />
        </mxCell>
        <mxCell id="47emfWNJjAUyKKDuT6b--8" value="Email(String)" style="ellipse;whiteSpace=wrap;html=1;" parent="1" vertex="1">
          <mxGeometry x="330" y="-100" width="120" height="80" as="geometry" />
        </mxCell>
        <mxCell id="47emfWNJjAUyKKDuT6b--15" style="edgeStyle=orthogonalEdgeStyle;rounded=0;orthogonalLoop=1;jettySize=auto;html=1;exitX=0.5;exitY=0;exitDx=0;exitDy=0;" parent="1" source="47emfWNJjAUyKKDuT6b--12" target="47emfWNJjAUyKKDuT6b--13" edge="1">
          <mxGeometry relative="1" as="geometry">
            <mxPoint x="1350" y="780" as="sourcePoint" />
          </mxGeometry>
        </mxCell>
        <mxCell id="47emfWNJjAUyKKDuT6b--18" style="edgeStyle=orthogonalEdgeStyle;rounded=0;orthogonalLoop=1;jettySize=auto;html=1;exitX=1;exitY=0;exitDx=0;exitDy=0;entryX=0;entryY=0.5;entryDx=0;entryDy=0;" parent="1" source="47emfWNJjAUyKKDuT6b--12" target="47emfWNJjAUyKKDuT6b--17" edge="1">
          <mxGeometry relative="1" as="geometry" />
        </mxCell>
        <mxCell id="47emfWNJjAUyKKDuT6b--128" style="edgeStyle=orthogonalEdgeStyle;rounded=0;orthogonalLoop=1;jettySize=auto;html=1;exitX=0;exitY=1;exitDx=0;exitDy=0;entryX=0;entryY=0.5;entryDx=0;entryDy=0;" parent="1" source="47emfWNJjAUyKKDuT6b--12" target="47emfWNJjAUyKKDuT6b--14" edge="1">
          <mxGeometry relative="1" as="geometry">
            <Array as="points">
              <mxPoint x="1220" y="1160" />
              <mxPoint x="1220" y="1540" />
              <mxPoint x="2160" y="1540" />
            </Array>
          </mxGeometry>
        </mxCell>
        <mxCell id="47emfWNJjAUyKKDuT6b--129" style="edgeStyle=orthogonalEdgeStyle;rounded=0;orthogonalLoop=1;jettySize=auto;html=1;exitX=0.5;exitY=1;exitDx=0;exitDy=0;entryX=0;entryY=0.5;entryDx=0;entryDy=0;" parent="1" source="47emfWNJjAUyKKDuT6b--12" target="47emfWNJjAUyKKDuT6b--21" edge="1">
          <mxGeometry relative="1" as="geometry" />
        </mxCell>
        <mxCell id="47emfWNJjAUyKKDuT6b--130" style="edgeStyle=orthogonalEdgeStyle;rounded=0;orthogonalLoop=1;jettySize=auto;html=1;exitX=1;exitY=1;exitDx=0;exitDy=0;entryX=0.5;entryY=1;entryDx=0;entryDy=0;" parent="1" source="47emfWNJjAUyKKDuT6b--12" target="47emfWNJjAUyKKDuT6b--25" edge="1">
          <mxGeometry relative="1" as="geometry">
            <Array as="points">
              <mxPoint x="1340" y="1160" />
              <mxPoint x="1340" y="1280" />
              <mxPoint x="1705" y="1280" />
              <mxPoint x="1705" y="1270" />
              <mxPoint x="2140" y="1270" />
            </Array>
          </mxGeometry>
        </mxCell>
        <mxCell id="47emfWNJjAUyKKDuT6b--12" value="&lt;span style=&quot;border: 0px solid rgb(227, 227, 227); box-sizing: border-box; --tw-border-spacing-x: 0; --tw-border-spacing-y: 0; --tw-translate-x: 0; --tw-translate-y: 0; --tw-rotate: 0; --tw-skew-x: 0; --tw-skew-y: 0; --tw-scale-x: 1; --tw-scale-y: 1; --tw-pan-x: ; --tw-pan-y: ; --tw-pinch-zoom: ; --tw-scroll-snap-strictness: proximity; --tw-gradient-from-position: ; --tw-gradient-via-position: ; --tw-gradient-to-position: ; --tw-ordinal: ; --tw-slashed-zero: ; --tw-numeric-figure: ; --tw-numeric-spacing: ; --tw-numeric-fraction: ; --tw-ring-inset: ; --tw-ring-offset-width: 0px; --tw-ring-offset-color: #fff; --tw-ring-color: rgba(69,89,164,.5); --tw-ring-offset-shadow: 0 0 #0000; --tw-ring-shadow: 0 0 #0000; --tw-shadow: 0 0 #0000; --tw-shadow-colored: 0 0 #0000; --tw-blur: ; --tw-brightness: ; --tw-contrast: ; --tw-grayscale: ; --tw-hue-rotate: ; --tw-invert: ; --tw-saturate: ; --tw-sepia: ; --tw-drop-shadow: ; --tw-backdrop-blur: ; --tw-backdrop-brightness: ; --tw-backdrop-contrast: ; --tw-backdrop-grayscale: ; --tw-backdrop-hue-rotate: ; --tw-backdrop-invert: ; --tw-backdrop-opacity: ; --tw-backdrop-saturate: ; --tw-backdrop-sepia: ; --tw-contain-size: ; --tw-contain-layout: ; --tw-contain-paint: ; --tw-contain-style: ; scrollbar-color: var(--gray-200) transparent; font-weight: 600; color: rgb(13, 13, 13); font-family: ui-sans-serif, -apple-system, system-ui, &amp;quot;Segoe UI&amp;quot;, Helvetica, &amp;quot;Apple Color Emoji&amp;quot;, Arial, sans-serif, &amp;quot;Segoe UI Emoji&amp;quot;, &amp;quot;Segoe UI Symbol&amp;quot;; font-size: 14px; text-align: left; background-color: rgb(255, 255, 255);&quot;&gt;Tenant&lt;/span&gt;" style="rhombus;whiteSpace=wrap;html=1;" parent="1" vertex="1">
          <mxGeometry x="1260" y="1100" width="80" height="80" as="geometry" />
        </mxCell>
        <mxCell id="47emfWNJjAUyKKDuT6b--13" value="&lt;span style=&quot;color: rgb(13, 13, 13); font-family: ui-monospace, SFMono-Regular, &amp;quot;SF Mono&amp;quot;, Menlo, Consolas, &amp;quot;Liberation Mono&amp;quot;, monospace; font-size: 12.25px; text-align: left; background-color: rgb(236, 236, 236);&quot;&gt;tenantId(int)&lt;/span&gt;" style="ellipse;whiteSpace=wrap;html=1;" parent="1" vertex="1">
          <mxGeometry x="1120" y="440" width="120" height="80" as="geometry" />
        </mxCell>
        <mxCell id="47emfWNJjAUyKKDuT6b--14" value="&lt;span style=&quot;color: rgb(13, 13, 13); font-family: ui-monospace, SFMono-Regular, &amp;quot;SF Mono&amp;quot;, Menlo, Consolas, &amp;quot;Liberation Mono&amp;quot;, monospace; font-size: 12.25px; text-align: left; background-color: rgb(236, 236, 236);&quot;&gt;name(string)&lt;/span&gt;" style="ellipse;whiteSpace=wrap;html=1;" parent="1" vertex="1">
          <mxGeometry x="2180" y="1500" width="120" height="80" as="geometry" />
        </mxCell>
        <mxCell id="47emfWNJjAUyKKDuT6b--17" value="&lt;span style=&quot;color: rgb(13, 13, 13); font-family: ui-monospace, SFMono-Regular, &amp;quot;SF Mono&amp;quot;, Menlo, Consolas, &amp;quot;Liberation Mono&amp;quot;, monospace; font-size: 12.25px; text-align: left; background-color: rgb(236, 236, 236);&quot;&gt;description(String)&lt;/span&gt;" style="ellipse;whiteSpace=wrap;html=1;" parent="1" vertex="1">
          <mxGeometry x="1610" y="750" width="150" height="80" as="geometry" />
        </mxCell>
        <mxCell id="47emfWNJjAUyKKDuT6b--21" value="&lt;span style=&quot;color: rgb(13, 13, 13); font-family: ui-monospace, SFMono-Regular, &amp;quot;SF Mono&amp;quot;, Menlo, Consolas, &amp;quot;Liberation Mono&amp;quot;, monospace; font-size: 12.25px; text-align: left; background-color: rgb(236, 236, 236);&quot;&gt;createdAt(LocalDatetime)&lt;/span&gt;" style="ellipse;whiteSpace=wrap;html=1;" parent="1" vertex="1">
          <mxGeometry x="1980" y="1340" width="160" height="80" as="geometry" />
        </mxCell>
        <mxCell id="47emfWNJjAUyKKDuT6b--25" value="&lt;br&gt;&lt;span style=&quot;color: rgb(13, 13, 13); font-family: ui-monospace, SFMono-Regular, &amp;quot;SF Mono&amp;quot;, Menlo, Consolas, &amp;quot;Liberation Mono&amp;quot;, monospace; font-size: 12.25px; font-style: normal; font-variant-ligatures: normal; font-variant-caps: normal; font-weight: 500; letter-spacing: normal; orphans: 2; text-align: left; text-indent: 0px; text-transform: none; widows: 2; word-spacing: 0px; -webkit-text-stroke-width: 0px; white-space: normal; background-color: rgb(236, 236, 236); text-decoration-thickness: initial; text-decoration-style: initial; text-decoration-color: initial; display: inline !important; float: none;&quot;&gt;updatedAt&lt;/span&gt;&lt;br&gt;(LocaDateTime)" style="ellipse;whiteSpace=wrap;html=1;" parent="1" vertex="1">
          <mxGeometry x="2070" y="1190" width="140" height="60" as="geometry" />
        </mxCell>
        <mxCell id="47emfWNJjAUyKKDuT6b--43" style="edgeStyle=orthogonalEdgeStyle;rounded=0;orthogonalLoop=1;jettySize=auto;html=1;exitX=1;exitY=1;exitDx=0;exitDy=0;entryX=0;entryY=0.5;entryDx=0;entryDy=0;" parent="1" source="47emfWNJjAUyKKDuT6b--34" target="47emfWNJjAUyKKDuT6b--56" edge="1">
          <mxGeometry relative="1" as="geometry">
            <mxPoint x="560" y="1310" as="targetPoint" />
            <Array as="points">
              <mxPoint x="-405" y="1200" />
              <mxPoint x="-170" y="1200" />
              <mxPoint x="-170" y="1510" />
            </Array>
          </mxGeometry>
        </mxCell>
        <mxCell id="47emfWNJjAUyKKDuT6b--45" style="edgeStyle=orthogonalEdgeStyle;rounded=0;orthogonalLoop=1;jettySize=auto;html=1;exitX=1;exitY=0;exitDx=0;exitDy=0;" parent="1" source="47emfWNJjAUyKKDuT6b--34" target="47emfWNJjAUyKKDuT6b--41" edge="1">
          <mxGeometry relative="1" as="geometry" />
        </mxCell>
        <mxCell id="47emfWNJjAUyKKDuT6b--46" style="edgeStyle=orthogonalEdgeStyle;rounded=0;orthogonalLoop=1;jettySize=auto;html=1;exitX=0;exitY=1;exitDx=0;exitDy=0;entryX=0.5;entryY=0;entryDx=0;entryDy=0;" parent="1" source="47emfWNJjAUyKKDuT6b--34" target="47emfWNJjAUyKKDuT6b--53" edge="1">
          <mxGeometry relative="1" as="geometry">
            <mxPoint x="119.99999999999955" y="1150.0000000000002" as="targetPoint" />
            <Array as="points">
              <mxPoint x="-445" y="1270" />
              <mxPoint x="-580" y="1270" />
              <mxPoint x="-580" y="1450" />
            </Array>
          </mxGeometry>
        </mxCell>
        <mxCell id="47emfWNJjAUyKKDuT6b--48" style="edgeStyle=orthogonalEdgeStyle;rounded=0;orthogonalLoop=1;jettySize=auto;html=1;exitX=0;exitY=0;exitDx=0;exitDy=0;" parent="1" source="47emfWNJjAUyKKDuT6b--34" target="47emfWNJjAUyKKDuT6b--40" edge="1">
          <mxGeometry relative="1" as="geometry">
            <Array as="points">
              <mxPoint x="-445" y="1090" />
              <mxPoint x="-730" y="1090" />
              <mxPoint x="-730" y="920" />
            </Array>
          </mxGeometry>
        </mxCell>
        <mxCell id="47emfWNJjAUyKKDuT6b--125" style="edgeStyle=orthogonalEdgeStyle;rounded=0;orthogonalLoop=1;jettySize=auto;html=1;exitX=0;exitY=0.5;exitDx=0;exitDy=0;entryX=0.5;entryY=0;entryDx=0;entryDy=0;" parent="1" source="47emfWNJjAUyKKDuT6b--34" target="47emfWNJjAUyKKDuT6b--58" edge="1">
          <mxGeometry relative="1" as="geometry" />
        </mxCell>
        <mxCell id="47emfWNJjAUyKKDuT6b--34" value="&lt;span style=&quot;border: 0px solid rgb(227, 227, 227); box-sizing: border-box; --tw-border-spacing-x: 0; --tw-border-spacing-y: 0; --tw-translate-x: 0; --tw-translate-y: 0; --tw-rotate: 0; --tw-skew-x: 0; --tw-skew-y: 0; --tw-scale-x: 1; --tw-scale-y: 1; --tw-pan-x: ; --tw-pan-y: ; --tw-pinch-zoom: ; --tw-scroll-snap-strictness: proximity; --tw-gradient-from-position: ; --tw-gradient-via-position: ; --tw-gradient-to-position: ; --tw-ordinal: ; --tw-slashed-zero: ; --tw-numeric-figure: ; --tw-numeric-spacing: ; --tw-numeric-fraction: ; --tw-ring-inset: ; --tw-ring-offset-width: 0px; --tw-ring-offset-color: #fff; --tw-ring-color: rgba(69,89,164,.5); --tw-ring-offset-shadow: 0 0 #0000; --tw-ring-shadow: 0 0 #0000; --tw-shadow: 0 0 #0000; --tw-shadow-colored: 0 0 #0000; --tw-blur: ; --tw-brightness: ; --tw-contrast: ; --tw-grayscale: ; --tw-hue-rotate: ; --tw-invert: ; --tw-saturate: ; --tw-sepia: ; --tw-drop-shadow: ; --tw-backdrop-blur: ; --tw-backdrop-brightness: ; --tw-backdrop-contrast: ; --tw-backdrop-grayscale: ; --tw-backdrop-hue-rotate: ; --tw-backdrop-invert: ; --tw-backdrop-opacity: ; --tw-backdrop-saturate: ; --tw-backdrop-sepia: ; --tw-contain-size: ; --tw-contain-layout: ; --tw-contain-paint: ; --tw-contain-style: ; scrollbar-color: var(--main-surface-tertiary) transparent; font-weight: 600; color: rgb(13, 13, 13); font-family: ui-sans-serif, -apple-system, system-ui, &amp;quot;Segoe UI&amp;quot;, Helvetica, &amp;quot;Apple Color Emoji&amp;quot;, Arial, sans-serif, &amp;quot;Segoe UI Emoji&amp;quot;, &amp;quot;Segoe UI Symbol&amp;quot;; font-size: 14px; text-align: left; background-color: rgb(255, 255, 255);&quot;&gt;Project&lt;/span&gt;" style="rhombus;whiteSpace=wrap;html=1;" parent="1" vertex="1">
          <mxGeometry x="-465" y="1110" width="80" height="80" as="geometry" />
        </mxCell>
        <mxCell id="47emfWNJjAUyKKDuT6b--40" value="&lt;span style=&quot;color: rgb(13, 13, 13); font-family: ui-monospace, SFMono-Regular, &amp;quot;SF Mono&amp;quot;, Menlo, Consolas, &amp;quot;Liberation Mono&amp;quot;, monospace; font-size: 12.25px; text-align: left; background-color: rgb(236, 236, 236);&quot;&gt;projectId(Int)&lt;/span&gt;" style="ellipse;whiteSpace=wrap;html=1;" parent="1" vertex="1">
          <mxGeometry x="-870" y="880" width="120" height="80" as="geometry" />
        </mxCell>
        <mxCell id="47emfWNJjAUyKKDuT6b--42" style="edgeStyle=orthogonalEdgeStyle;rounded=0;orthogonalLoop=1;jettySize=auto;html=1;exitX=0.5;exitY=1;exitDx=0;exitDy=0;entryX=0.5;entryY=0;entryDx=0;entryDy=0;" parent="1" source="47emfWNJjAUyKKDuT6b--34" target="47emfWNJjAUyKKDuT6b--55" edge="1">
          <mxGeometry relative="1" as="geometry">
            <mxPoint x="301.2000000000003" y="1259.1200000000003" as="targetPoint" />
          </mxGeometry>
        </mxCell>
        <mxCell id="47emfWNJjAUyKKDuT6b--41" value="status(&lt;span style=&quot;color: rgb(13, 13, 13); font-family: ui-monospace, SFMono-Regular, &amp;quot;SF Mono&amp;quot;, Menlo, Consolas, &amp;quot;Liberation Mono&amp;quot;, monospace; font-size: 12.25px; text-align: left; background-color: rgb(236, 236, 236);&quot;&gt;State (enum)&lt;/span&gt;)" style="ellipse;whiteSpace=wrap;html=1;" parent="1" vertex="1">
          <mxGeometry x="-390" y="840" width="120" height="80" as="geometry" />
        </mxCell>
        <mxCell id="47emfWNJjAUyKKDuT6b--53" value="&lt;span style=&quot;color: rgb(13, 13, 13); font-family: ui-monospace, SFMono-Regular, &amp;quot;SF Mono&amp;quot;, Menlo, Consolas, &amp;quot;Liberation Mono&amp;quot;, monospace; font-size: 12.25px; text-align: left; background-color: rgb(236, 236, 236);&quot;&gt;name(string)&lt;/span&gt;" style="ellipse;whiteSpace=wrap;html=1;" parent="1" vertex="1">
          <mxGeometry x="-680" y="1490" width="120" height="80" as="geometry" />
        </mxCell>
        <mxCell id="47emfWNJjAUyKKDuT6b--55" value="&lt;br&gt;&lt;span style=&quot;color: rgb(13, 13, 13); font-family: ui-monospace, SFMono-Regular, &amp;quot;SF Mono&amp;quot;, Menlo, Consolas, &amp;quot;Liberation Mono&amp;quot;, monospace; font-size: 12.25px; font-style: normal; font-variant-ligatures: normal; font-variant-caps: normal; font-weight: 500; letter-spacing: normal; orphans: 2; text-align: left; text-indent: 0px; text-transform: none; widows: 2; word-spacing: 0px; -webkit-text-stroke-width: 0px; white-space: normal; background-color: rgb(236, 236, 236); text-decoration-thickness: initial; text-decoration-style: initial; text-decoration-color: initial; display: inline !important; float: none;&quot;&gt;updatedAt&lt;/span&gt;&lt;br&gt;(LocaDateTime)" style="ellipse;whiteSpace=wrap;html=1;" parent="1" vertex="1">
          <mxGeometry x="-495" y="1520" width="140" height="60" as="geometry" />
        </mxCell>
        <mxCell id="47emfWNJjAUyKKDuT6b--56" value="&lt;span style=&quot;color: rgb(13, 13, 13); font-family: ui-monospace, SFMono-Regular, &amp;quot;SF Mono&amp;quot;, Menlo, Consolas, &amp;quot;Liberation Mono&amp;quot;, monospace; font-size: 12.25px; text-align: left; background-color: rgb(236, 236, 236);&quot;&gt;createdAt(LocalDatetime)&lt;/span&gt;" style="ellipse;whiteSpace=wrap;html=1;" parent="1" vertex="1">
          <mxGeometry x="-120" y="1470" width="190" height="80" as="geometry" />
        </mxCell>
        <mxCell id="47emfWNJjAUyKKDuT6b--58" value="&lt;span style=&quot;color: rgb(13, 13, 13); font-family: ui-monospace, SFMono-Regular, &amp;quot;SF Mono&amp;quot;, Menlo, Consolas, &amp;quot;Liberation Mono&amp;quot;, monospace; font-size: 12.25px; text-align: left; background-color: rgb(236, 236, 236);&quot;&gt;description(String)&lt;/span&gt;" style="ellipse;whiteSpace=wrap;html=1;" parent="1" vertex="1">
          <mxGeometry x="-880" y="1470" width="150" height="80" as="geometry" />
        </mxCell>
        <mxCell id="47emfWNJjAUyKKDuT6b--64" style="edgeStyle=orthogonalEdgeStyle;rounded=0;orthogonalLoop=1;jettySize=auto;html=1;exitX=1;exitY=0.5;exitDx=0;exitDy=0;entryX=0.5;entryY=0;entryDx=0;entryDy=0;" parent="1" source="47emfWNJjAUyKKDuT6b--60" target="47emfWNJjAUyKKDuT6b--61" edge="1">
          <mxGeometry relative="1" as="geometry">
            <Array as="points">
              <mxPoint x="2270" y="200" />
              <mxPoint x="2270" y="230" />
              <mxPoint x="2477" y="230" />
              <mxPoint x="2477" y="30" />
            </Array>
          </mxGeometry>
        </mxCell>
        <mxCell id="47emfWNJjAUyKKDuT6b--121" style="edgeStyle=orthogonalEdgeStyle;rounded=0;orthogonalLoop=1;jettySize=auto;html=1;exitX=1;exitY=0;exitDx=0;exitDy=0;entryX=0;entryY=0.5;entryDx=0;entryDy=0;" parent="1" source="47emfWNJjAUyKKDuT6b--60" target="47emfWNJjAUyKKDuT6b--65" edge="1">
          <mxGeometry relative="1" as="geometry" />
        </mxCell>
        <mxCell id="47emfWNJjAUyKKDuT6b--122" style="edgeStyle=orthogonalEdgeStyle;rounded=0;orthogonalLoop=1;jettySize=auto;html=1;exitX=1;exitY=1;exitDx=0;exitDy=0;entryX=0;entryY=0.5;entryDx=0;entryDy=0;" parent="1" source="47emfWNJjAUyKKDuT6b--60" target="47emfWNJjAUyKKDuT6b--67" edge="1">
          <mxGeometry relative="1" as="geometry">
            <Array as="points">
              <mxPoint x="2123" y="470" />
            </Array>
          </mxGeometry>
        </mxCell>
        <mxCell id="47emfWNJjAUyKKDuT6b--123" style="edgeStyle=orthogonalEdgeStyle;rounded=0;orthogonalLoop=1;jettySize=auto;html=1;exitX=0;exitY=0;exitDx=0;exitDy=0;entryX=1;entryY=1;entryDx=0;entryDy=0;" parent="1" source="47emfWNJjAUyKKDuT6b--60" target="47emfWNJjAUyKKDuT6b--69" edge="1">
          <mxGeometry relative="1" as="geometry" />
        </mxCell>
        <mxCell id="47emfWNJjAUyKKDuT6b--60" value="&lt;span style=&quot;border: 0px solid rgb(227, 227, 227); box-sizing: border-box; --tw-border-spacing-x: 0; --tw-border-spacing-y: 0; --tw-translate-x: 0; --tw-translate-y: 0; --tw-rotate: 0; --tw-skew-x: 0; --tw-skew-y: 0; --tw-scale-x: 1; --tw-scale-y: 1; --tw-pan-x: ; --tw-pan-y: ; --tw-pinch-zoom: ; --tw-scroll-snap-strictness: proximity; --tw-gradient-from-position: ; --tw-gradient-via-position: ; --tw-gradient-to-position: ; --tw-ordinal: ; --tw-slashed-zero: ; --tw-numeric-figure: ; --tw-numeric-spacing: ; --tw-numeric-fraction: ; --tw-ring-inset: ; --tw-ring-offset-width: 0px; --tw-ring-offset-color: #fff; --tw-ring-color: rgba(69,89,164,.5); --tw-ring-offset-shadow: 0 0 #0000; --tw-ring-shadow: 0 0 #0000; --tw-shadow: 0 0 #0000; --tw-shadow-colored: 0 0 #0000; --tw-blur: ; --tw-brightness: ; --tw-contrast: ; --tw-grayscale: ; --tw-hue-rotate: ; --tw-invert: ; --tw-saturate: ; --tw-sepia: ; --tw-drop-shadow: ; --tw-backdrop-blur: ; --tw-backdrop-brightness: ; --tw-backdrop-contrast: ; --tw-backdrop-grayscale: ; --tw-backdrop-hue-rotate: ; --tw-backdrop-invert: ; --tw-backdrop-opacity: ; --tw-backdrop-saturate: ; --tw-backdrop-sepia: ; --tw-contain-size: ; --tw-contain-layout: ; --tw-contain-paint: ; --tw-contain-style: ; scrollbar-color: var(--gray-200) transparent; font-weight: 600; color: rgb(13, 13, 13); font-family: ui-sans-serif, -apple-system, system-ui, &amp;quot;Segoe UI&amp;quot;, Helvetica, &amp;quot;Apple Color Emoji&amp;quot;, Arial, sans-serif, &amp;quot;Segoe UI Emoji&amp;quot;, &amp;quot;Segoe UI Symbol&amp;quot;; font-size: 14px; text-align: left; background-color: rgb(255, 255, 255);&quot;&gt;Notification&lt;/span&gt;" style="rhombus;whiteSpace=wrap;html=1;" parent="1" vertex="1">
          <mxGeometry x="2010" y="160" width="150" height="80" as="geometry" />
        </mxCell>
        <mxCell id="47emfWNJjAUyKKDuT6b--61" value="&lt;span style=&quot;color: rgb(13, 13, 13); font-family: ui-monospace, SFMono-Regular, &amp;quot;SF Mono&amp;quot;, Menlo, Consolas, &amp;quot;Liberation Mono&amp;quot;, monospace; font-size: 12.25px; text-align: left; background-color: rgb(236, 236, 236);&quot;&gt;notificationId(Int)&lt;/span&gt;" style="ellipse;whiteSpace=wrap;html=1;" parent="1" vertex="1">
          <mxGeometry x="2440" y="30" width="155" height="80" as="geometry" />
        </mxCell>
        <mxCell id="47emfWNJjAUyKKDuT6b--65" value="&lt;span style=&quot;color: rgb(13, 13, 13); font-family: ui-monospace, SFMono-Regular, &amp;quot;SF Mono&amp;quot;, Menlo, Consolas, &amp;quot;Liberation Mono&amp;quot;, monospace; font-size: 12.25px; text-align: left; background-color: rgb(236, 236, 236);&quot;&gt;createdAt(LocalDatetime)&lt;/span&gt;" style="ellipse;whiteSpace=wrap;html=1;" parent="1" vertex="1">
          <mxGeometry x="2125" y="-100" width="160" height="80" as="geometry" />
        </mxCell>
        <mxCell id="47emfWNJjAUyKKDuT6b--67" value="status(&lt;span style=&quot;color: rgb(13, 13, 13); font-family: ui-monospace, SFMono-Regular, &amp;quot;SF Mono&amp;quot;, Menlo, Consolas, &amp;quot;Liberation Mono&amp;quot;, monospace; font-size: 12.25px; text-align: left; background-color: rgb(236, 236, 236);&quot;&gt;State (enum)&lt;/span&gt;)" style="ellipse;whiteSpace=wrap;html=1;" parent="1" vertex="1">
          <mxGeometry x="2475" y="430" width="120" height="80" as="geometry" />
        </mxCell>
        <mxCell id="47emfWNJjAUyKKDuT6b--69" value="&lt;span style=&quot;color: rgb(13, 13, 13); font-family: ui-monospace, SFMono-Regular, &amp;quot;SF Mono&amp;quot;, Menlo, Consolas, &amp;quot;Liberation Mono&amp;quot;, monospace; font-size: 12.25px; text-align: left; background-color: rgb(236, 236, 236);&quot;&gt;message(String)&lt;/span&gt;" style="ellipse;whiteSpace=wrap;html=1;" parent="1" vertex="1">
          <mxGeometry x="1810" y="-100" width="120" height="80" as="geometry" />
        </mxCell>
        <mxCell id="47emfWNJjAUyKKDuT6b--82" style="edgeStyle=orthogonalEdgeStyle;rounded=0;orthogonalLoop=1;jettySize=auto;html=1;exitX=0.5;exitY=0;exitDx=0;exitDy=0;entryX=1;entryY=0.5;entryDx=0;entryDy=0;" parent="1" source="47emfWNJjAUyKKDuT6b--71" target="47emfWNJjAUyKKDuT6b--74" edge="1">
          <mxGeometry relative="1" as="geometry">
            <Array as="points">
              <mxPoint x="-805" />
            </Array>
          </mxGeometry>
        </mxCell>
        <mxCell id="47emfWNJjAUyKKDuT6b--117" style="edgeStyle=orthogonalEdgeStyle;rounded=0;orthogonalLoop=1;jettySize=auto;html=1;exitX=0;exitY=0.5;exitDx=0;exitDy=0;entryX=1;entryY=0.5;entryDx=0;entryDy=0;" parent="1" source="47emfWNJjAUyKKDuT6b--71" target="47emfWNJjAUyKKDuT6b--72" edge="1">
          <mxGeometry relative="1" as="geometry" />
        </mxCell>
        <mxCell id="47emfWNJjAUyKKDuT6b--133" style="edgeStyle=orthogonalEdgeStyle;rounded=0;orthogonalLoop=1;jettySize=auto;html=1;exitX=0;exitY=1;exitDx=0;exitDy=0;entryX=1;entryY=0.5;entryDx=0;entryDy=0;" parent="1" source="47emfWNJjAUyKKDuT6b--71" target="47emfWNJjAUyKKDuT6b--76" edge="1">
          <mxGeometry relative="1" as="geometry">
            <Array as="points">
              <mxPoint x="-872" y="440" />
            </Array>
          </mxGeometry>
        </mxCell>
        <mxCell id="47emfWNJjAUyKKDuT6b--71" value="&lt;span style=&quot;border: 0px solid rgb(227, 227, 227); box-sizing: border-box; --tw-border-spacing-x: 0; --tw-border-spacing-y: 0; --tw-translate-x: 0; --tw-translate-y: 0; --tw-rotate: 0; --tw-skew-x: 0; --tw-skew-y: 0; --tw-scale-x: 1; --tw-scale-y: 1; --tw-pan-x: ; --tw-pan-y: ; --tw-pinch-zoom: ; --tw-scroll-snap-strictness: proximity; --tw-gradient-from-position: ; --tw-gradient-via-position: ; --tw-gradient-to-position: ; --tw-ordinal: ; --tw-slashed-zero: ; --tw-numeric-figure: ; --tw-numeric-spacing: ; --tw-numeric-fraction: ; --tw-ring-inset: ; --tw-ring-offset-width: 0px; --tw-ring-offset-color: #fff; --tw-ring-color: rgba(69,89,164,.5); --tw-ring-offset-shadow: 0 0 #0000; --tw-ring-shadow: 0 0 #0000; --tw-shadow: 0 0 #0000; --tw-shadow-colored: 0 0 #0000; --tw-blur: ; --tw-brightness: ; --tw-contrast: ; --tw-grayscale: ; --tw-hue-rotate: ; --tw-invert: ; --tw-saturate: ; --tw-sepia: ; --tw-drop-shadow: ; --tw-backdrop-blur: ; --tw-backdrop-brightness: ; --tw-backdrop-contrast: ; --tw-backdrop-grayscale: ; --tw-backdrop-hue-rotate: ; --tw-backdrop-invert: ; --tw-backdrop-opacity: ; --tw-backdrop-saturate: ; --tw-backdrop-sepia: ; --tw-contain-size: ; --tw-contain-layout: ; --tw-contain-paint: ; --tw-contain-style: ; scrollbar-color: var(--gray-200) transparent; font-weight: 600; color: rgb(13, 13, 13); font-family: ui-sans-serif, -apple-system, system-ui, &amp;quot;Segoe UI&amp;quot;, Helvetica, &amp;quot;Apple Color Emoji&amp;quot;, Arial, sans-serif, &amp;quot;Segoe UI Emoji&amp;quot;, &amp;quot;Segoe UI Symbol&amp;quot;; font-size: 14px; text-align: left; background-color: rgb(255, 255, 255);&quot;&gt;Comment&lt;/span&gt;" style="rhombus;whiteSpace=wrap;html=1;" parent="1" vertex="1">
          <mxGeometry x="-910" y="130" width="150" height="80" as="geometry" />
        </mxCell>
        <mxCell id="47emfWNJjAUyKKDuT6b--72" value="&lt;span style=&quot;color: rgb(13, 13, 13); font-family: ui-monospace, SFMono-Regular, &amp;quot;SF Mono&amp;quot;, Menlo, Consolas, &amp;quot;Liberation Mono&amp;quot;, monospace; font-size: 12.25px; text-align: left; background-color: rgb(236, 236, 236);&quot;&gt;createdAt(LocalDatetime)&lt;/span&gt;" style="ellipse;whiteSpace=wrap;html=1;" parent="1" vertex="1">
          <mxGeometry x="-1400" y="130" width="160" height="80" as="geometry" />
        </mxCell>
        <mxCell id="47emfWNJjAUyKKDuT6b--74" value="&lt;br&gt;&lt;span style=&quot;color: rgb(13, 13, 13); font-family: ui-monospace, SFMono-Regular, &amp;quot;SF Mono&amp;quot;, Menlo, Consolas, &amp;quot;Liberation Mono&amp;quot;, monospace; font-size: 12.25px; font-style: normal; font-variant-ligatures: normal; font-variant-caps: normal; font-weight: 500; letter-spacing: normal; orphans: 2; text-align: left; text-indent: 0px; text-transform: none; widows: 2; word-spacing: 0px; -webkit-text-stroke-width: 0px; white-space: normal; background-color: rgb(236, 236, 236); text-decoration-thickness: initial; text-decoration-style: initial; text-decoration-color: initial; display: inline !important; float: none;&quot;&gt;updatedAt&lt;/span&gt;&lt;br&gt;(LocaDateTime)" style="ellipse;whiteSpace=wrap;html=1;" parent="1" vertex="1">
          <mxGeometry x="-1310" y="-30" width="140" height="60" as="geometry" />
        </mxCell>
        <mxCell id="47emfWNJjAUyKKDuT6b--75" value="&lt;span style=&quot;color: rgb(13, 13, 13); font-family: ui-monospace, SFMono-Regular, &amp;quot;SF Mono&amp;quot;, Menlo, Consolas, &amp;quot;Liberation Mono&amp;quot;, monospace; font-size: 12.25px; text-align: left; background-color: rgb(236, 236, 236);&quot;&gt;content(String)&lt;/span&gt;" style="ellipse;whiteSpace=wrap;html=1;" parent="1" vertex="1">
          <mxGeometry x="-640" y="500" width="120" height="80" as="geometry" />
        </mxCell>
        <mxCell id="47emfWNJjAUyKKDuT6b--76" value="&lt;span style=&quot;color: rgb(13, 13, 13); font-family: ui-monospace, SFMono-Regular, &amp;quot;SF Mono&amp;quot;, Menlo, Consolas, &amp;quot;Liberation Mono&amp;quot;, monospace; font-size: 12.25px; text-align: left; background-color: rgb(236, 236, 236);&quot;&gt;commentId(Int)&lt;/span&gt;" style="ellipse;whiteSpace=wrap;html=1;" parent="1" vertex="1">
          <mxGeometry x="-1420" y="400" width="120" height="80" as="geometry" />
        </mxCell>
        <mxCell id="47emfWNJjAUyKKDuT6b--83" style="edgeStyle=orthogonalEdgeStyle;rounded=0;orthogonalLoop=1;jettySize=auto;html=1;exitX=0.5;exitY=0;exitDx=0;exitDy=0;entryX=0.5;entryY=1;entryDx=0;entryDy=0;" parent="1" source="47emfWNJjAUyKKDuT6b--89" target="47emfWNJjAUyKKDuT6b--8" edge="1">
          <mxGeometry relative="1" as="geometry">
            <mxPoint x="550" y="80" as="targetPoint" />
          </mxGeometry>
        </mxCell>
        <mxCell id="47emfWNJjAUyKKDuT6b--85" style="edgeStyle=orthogonalEdgeStyle;rounded=0;orthogonalLoop=1;jettySize=auto;html=1;exitX=0;exitY=0;exitDx=0;exitDy=0;" parent="1" source="47emfWNJjAUyKKDuT6b--89" target="47emfWNJjAUyKKDuT6b--5" edge="1">
          <mxGeometry relative="1" as="geometry">
            <mxPoint x="140" y="190" as="targetPoint" />
            <mxPoint x="310" y="120" as="sourcePoint" />
            <Array as="points">
              <mxPoint x="370" y="80" />
              <mxPoint x="90" y="80" />
            </Array>
          </mxGeometry>
        </mxCell>
        <mxCell id="47emfWNJjAUyKKDuT6b--86" style="edgeStyle=orthogonalEdgeStyle;rounded=0;orthogonalLoop=1;jettySize=auto;html=1;exitX=0;exitY=1;exitDx=0;exitDy=0;entryX=0.5;entryY=0;entryDx=0;entryDy=0;" parent="1" source="47emfWNJjAUyKKDuT6b--89" target="47emfWNJjAUyKKDuT6b--91" edge="1">
          <mxGeometry relative="1" as="geometry">
            <Array as="points">
              <mxPoint x="240" y="190" />
              <mxPoint x="240" y="250" />
              <mxPoint x="-110" y="250" />
            </Array>
          </mxGeometry>
        </mxCell>
        <mxCell id="47emfWNJjAUyKKDuT6b--87" style="edgeStyle=orthogonalEdgeStyle;rounded=0;orthogonalLoop=1;jettySize=auto;html=1;exitX=1;exitY=0;exitDx=0;exitDy=0;entryX=0;entryY=0.5;entryDx=0;entryDy=0;" parent="1" source="47emfWNJjAUyKKDuT6b--89" target="47emfWNJjAUyKKDuT6b--92" edge="1">
          <mxGeometry relative="1" as="geometry">
            <Array as="points">
              <mxPoint x="410" y="80" />
              <mxPoint x="640" y="80" />
            </Array>
          </mxGeometry>
        </mxCell>
        <mxCell id="47emfWNJjAUyKKDuT6b--88" style="edgeStyle=orthogonalEdgeStyle;rounded=0;orthogonalLoop=1;jettySize=auto;html=1;exitX=1;exitY=0.5;exitDx=0;exitDy=0;entryX=0;entryY=0.5;entryDx=0;entryDy=0;" parent="1" source="47emfWNJjAUyKKDuT6b--89" target="47emfWNJjAUyKKDuT6b--7" edge="1">
          <mxGeometry relative="1" as="geometry">
            <mxPoint x="680" y="170" as="targetPoint" />
          </mxGeometry>
        </mxCell>
        <mxCell id="47emfWNJjAUyKKDuT6b--89" value="Users" style="rhombus;whiteSpace=wrap;html=1;" parent="1" vertex="1">
          <mxGeometry x="350" y="130" width="80" height="80" as="geometry" />
        </mxCell>
        <mxCell id="47emfWNJjAUyKKDuT6b--91" value="Password(String)" style="ellipse;whiteSpace=wrap;html=1;" parent="1" vertex="1">
          <mxGeometry x="-170" y="430" width="120" height="80" as="geometry" />
        </mxCell>
        <object label="Role(Enum)" id="47emfWNJjAUyKKDuT6b--92">
          <mxCell style="ellipse;whiteSpace=wrap;html=1;" parent="1" vertex="1">
            <mxGeometry x="640" y="-100" width="120" height="80" as="geometry" />
          </mxCell>
        </object>
        <mxCell id="47emfWNJjAUyKKDuT6b--100" value="" style="endArrow=none;html=1;rounded=0;exitX=0;exitY=0;exitDx=0;exitDy=0;entryX=0.75;entryY=1;entryDx=0;entryDy=0;" parent="1" source="47emfWNJjAUyKKDuT6b--12" target="47emfWNJjAUyKKDuT6b--106" edge="1">
          <mxGeometry width="50" height="50" relative="1" as="geometry">
            <mxPoint x="490" y="380" as="sourcePoint" />
            <mxPoint x="380" y="370" as="targetPoint" />
          </mxGeometry>
        </mxCell>
        <mxCell id="47emfWNJjAUyKKDuT6b--102" value="" style="endArrow=none;html=1;rounded=0;entryX=0.5;entryY=1;entryDx=0;entryDy=0;exitX=0.25;exitY=0;exitDx=0;exitDy=0;" parent="1" source="47emfWNJjAUyKKDuT6b--106" target="47emfWNJjAUyKKDuT6b--89" edge="1">
          <mxGeometry width="50" height="50" relative="1" as="geometry">
            <mxPoint x="375" y="310" as="sourcePoint" />
            <mxPoint x="425" y="260" as="targetPoint" />
          </mxGeometry>
        </mxCell>
        <mxCell id="47emfWNJjAUyKKDuT6b--105" value="" style="endArrow=none;html=1;rounded=0;exitX=1;exitY=0.5;exitDx=0;exitDy=0;entryX=0;entryY=0.5;entryDx=0;entryDy=0;" parent="1" source="47emfWNJjAUyKKDuT6b--71" target="47emfWNJjAUyKKDuT6b--107" edge="1">
          <mxGeometry width="50" height="50" relative="1" as="geometry">
            <mxPoint x="55" y="2350" as="sourcePoint" />
            <mxPoint x="-360" y="481.6666666666667" as="targetPoint" />
            <Array as="points" />
          </mxGeometry>
        </mxCell>
        <mxCell id="47emfWNJjAUyKKDuT6b--106" value="Works At" style="rounded=0;whiteSpace=wrap;html=1;" parent="1" vertex="1">
          <mxGeometry x="640" y="600" width="120" height="60" as="geometry" />
        </mxCell>
        <mxCell id="47emfWNJjAUyKKDuT6b--107" value="Comments" style="rounded=0;whiteSpace=wrap;html=1;" parent="1" vertex="1">
          <mxGeometry x="-430" y="140" width="120" height="60" as="geometry" />
        </mxCell>
        <mxCell id="47emfWNJjAUyKKDuT6b--108" value="" style="endArrow=none;html=1;rounded=0;exitX=1;exitY=0.5;exitDx=0;exitDy=0;entryX=0;entryY=0.5;entryDx=0;entryDy=0;" parent="1" source="47emfWNJjAUyKKDuT6b--107" target="47emfWNJjAUyKKDuT6b--89" edge="1">
          <mxGeometry width="50" height="50" relative="1" as="geometry">
            <mxPoint x="-355" y="420" as="sourcePoint" />
            <mxPoint x="345" y="175.00000000000023" as="targetPoint" />
            <Array as="points">
              <mxPoint x="40" y="170" />
            </Array>
          </mxGeometry>
        </mxCell>
        <mxCell id="47emfWNJjAUyKKDuT6b--110" value="Receives" style="rounded=0;whiteSpace=wrap;html=1;" parent="1" vertex="1">
          <mxGeometry x="1215" y="170" width="120" height="60" as="geometry" />
        </mxCell>
        <mxCell id="47emfWNJjAUyKKDuT6b--111" value="" style="endArrow=none;html=1;rounded=0;exitX=1;exitY=1;exitDx=0;exitDy=0;entryX=0;entryY=0.5;entryDx=0;entryDy=0;" parent="1" source="47emfWNJjAUyKKDuT6b--89" target="47emfWNJjAUyKKDuT6b--110" edge="1">
          <mxGeometry width="50" height="50" relative="1" as="geometry">
            <mxPoint x="670" y="450" as="sourcePoint" />
            <mxPoint x="920" y="330" as="targetPoint" />
            <Array as="points" />
          </mxGeometry>
        </mxCell>
        <mxCell id="47emfWNJjAUyKKDuT6b--112" value="" style="endArrow=none;html=1;rounded=0;entryX=0;entryY=0.5;entryDx=0;entryDy=0;exitX=1;exitY=0.5;exitDx=0;exitDy=0;" parent="1" source="47emfWNJjAUyKKDuT6b--113" target="47emfWNJjAUyKKDuT6b--12" edge="1">
          <mxGeometry width="50" height="50" relative="1" as="geometry">
            <mxPoint x="20" y="870" as="sourcePoint" />
            <mxPoint x="390" y="790" as="targetPoint" />
            <Array as="points" />
          </mxGeometry>
        </mxCell>
        <mxCell id="47emfWNJjAUyKKDuT6b--113" value="Assigned" style="rounded=0;whiteSpace=wrap;html=1;" parent="1" vertex="1">
          <mxGeometry x="380" y="1110" width="120" height="60" as="geometry" />
        </mxCell>
        <mxCell id="47emfWNJjAUyKKDuT6b--114" value="" style="endArrow=none;html=1;rounded=0;exitX=1;exitY=0.5;exitDx=0;exitDy=0;entryX=0;entryY=0.5;entryDx=0;entryDy=0;" parent="1" source="47emfWNJjAUyKKDuT6b--34" target="47emfWNJjAUyKKDuT6b--113" edge="1">
          <mxGeometry width="50" height="50" relative="1" as="geometry">
            <mxPoint x="340" y="840" as="sourcePoint" />
            <mxPoint x="390" y="790" as="targetPoint" />
            <Array as="points" />
          </mxGeometry>
        </mxCell>
        <mxCell id="47emfWNJjAUyKKDuT6b--118" style="edgeStyle=orthogonalEdgeStyle;rounded=0;orthogonalLoop=1;jettySize=auto;html=1;exitX=0.5;exitY=1;exitDx=0;exitDy=0;entryX=0.026;entryY=0.414;entryDx=0;entryDy=0;entryPerimeter=0;" parent="1" source="47emfWNJjAUyKKDuT6b--71" target="47emfWNJjAUyKKDuT6b--75" edge="1">
          <mxGeometry relative="1" as="geometry">
            <Array as="points">
              <mxPoint x="-805" y="533" />
            </Array>
          </mxGeometry>
        </mxCell>
        <mxCell id="47emfWNJjAUyKKDuT6b--120" value="" style="endArrow=none;html=1;rounded=0;entryX=0;entryY=0.5;entryDx=0;entryDy=0;exitX=1;exitY=0.5;exitDx=0;exitDy=0;" parent="1" source="47emfWNJjAUyKKDuT6b--110" target="47emfWNJjAUyKKDuT6b--60" edge="1">
          <mxGeometry width="50" height="50" relative="1" as="geometry">
            <mxPoint x="1090" y="880" as="sourcePoint" />
            <mxPoint x="1140" y="830" as="targetPoint" />
          </mxGeometry>
        </mxCell>
        <mxCell id="47emfWNJjAUyKKDuT6b--134" value="MANY" style="text;html=1;align=center;verticalAlign=middle;resizable=0;points=[];autosize=1;strokeColor=none;fillColor=none;rotation=270;" parent="1" vertex="1">
          <mxGeometry x="360" y="240" width="60" height="30" as="geometry" />
        </mxCell>
        <mxCell id="47emfWNJjAUyKKDuT6b--135" value="ONE" style="text;html=1;align=center;verticalAlign=middle;resizable=0;points=[];autosize=1;strokeColor=none;fillColor=none;rotation=270;" parent="1" vertex="1">
          <mxGeometry x="1225" y="1060" width="50" height="30" as="geometry" />
        </mxCell>
        <mxCell id="47emfWNJjAUyKKDuT6b--136" value="MANY" style="text;html=1;align=center;verticalAlign=middle;resizable=0;points=[];autosize=1;strokeColor=none;fillColor=none;rotation=0;" parent="1" vertex="1">
          <mxGeometry x="-340" y="1125" width="60" height="30" as="geometry" />
        </mxCell>
        <mxCell id="47emfWNJjAUyKKDuT6b--137" value="ONE" style="text;html=1;align=center;verticalAlign=middle;resizable=0;points=[];autosize=1;strokeColor=none;fillColor=none;rotation=0;" parent="1" vertex="1">
          <mxGeometry x="1130" y="1110" width="50" height="30" as="geometry" />
        </mxCell>
        <mxCell id="47emfWNJjAUyKKDuT6b--138" value="MANY" style="text;html=1;align=center;verticalAlign=middle;resizable=0;points=[];autosize=1;strokeColor=none;fillColor=none;" parent="1" vertex="1">
          <mxGeometry x="1830" y="170" width="60" height="30" as="geometry" />
        </mxCell>
        <mxCell id="47emfWNJjAUyKKDuT6b--139" value="ONE" style="text;html=1;align=center;verticalAlign=middle;resizable=0;points=[];autosize=1;strokeColor=none;fillColor=none;" parent="1" vertex="1">
          <mxGeometry x="445" y="170" width="50" height="30" as="geometry" />
        </mxCell>
        <mxCell id="47emfWNJjAUyKKDuT6b--140" value="MANY" style="text;html=1;align=center;verticalAlign=middle;resizable=0;points=[];autosize=1;strokeColor=none;fillColor=none;" parent="1" vertex="1">
          <mxGeometry x="-740" y="140" width="60" height="30" as="geometry" />
        </mxCell>
        <mxCell id="47emfWNJjAUyKKDuT6b--141" value="ONE" style="text;html=1;align=center;verticalAlign=middle;resizable=0;points=[];autosize=1;strokeColor=none;fillColor=none;" parent="1" vertex="1">
          <mxGeometry x="180" y="130" width="50" height="30" as="geometry" />
        </mxCell>
        <mxCell id="tkTuAAWp0ZW7RWuQvYGS-1" value="" style="endArrow=none;html=1;rounded=0;exitX=1;exitY=0.5;exitDx=0;exitDy=0;entryX=0.5;entryY=1;entryDx=0;entryDy=0;" edge="1" parent="1" source="47emfWNJjAUyKKDuT6b--12" target="tkTuAAWp0ZW7RWuQvYGS-2">
          <mxGeometry width="50" height="50" relative="1" as="geometry">
            <mxPoint x="1870" y="980" as="sourcePoint" />
            <mxPoint x="2000" y="1140" as="targetPoint" />
            <Array as="points">
              <mxPoint x="2080" y="1130" />
            </Array>
          </mxGeometry>
        </mxCell>
        <mxCell id="tkTuAAWp0ZW7RWuQvYGS-2" value="Send" style="rounded=0;whiteSpace=wrap;html=1;" vertex="1" parent="1">
          <mxGeometry x="2020" y="820" width="120" height="60" as="geometry" />
        </mxCell>
        <mxCell id="tkTuAAWp0ZW7RWuQvYGS-3" value="" style="endArrow=none;html=1;rounded=0;entryX=0.5;entryY=1;entryDx=0;entryDy=0;exitX=0.5;exitY=0;exitDx=0;exitDy=0;" edge="1" parent="1" source="tkTuAAWp0ZW7RWuQvYGS-2" target="47emfWNJjAUyKKDuT6b--60">
          <mxGeometry width="50" height="50" relative="1" as="geometry">
            <mxPoint x="2080" y="830" as="sourcePoint" />
            <mxPoint x="1920" y="660" as="targetPoint" />
          </mxGeometry>
        </mxCell>
        <mxCell id="tkTuAAWp0ZW7RWuQvYGS-4" value="MANY" style="text;html=1;align=center;verticalAlign=middle;resizable=0;points=[];autosize=1;strokeColor=none;fillColor=none;rotation=270;" vertex="1" parent="1">
          <mxGeometry x="2030" y="280" width="60" height="30" as="geometry" />
        </mxCell>
        <mxCell id="tkTuAAWp0ZW7RWuQvYGS-5" value="ONE" style="text;html=1;align=center;verticalAlign=middle;resizable=0;points=[];autosize=1;strokeColor=none;fillColor=none;rotation=0;" vertex="1" parent="1">
          <mxGeometry x="1370" y="1135" width="50" height="30" as="geometry" />
        </mxCell>
      </root>
    </mxGraphModel>
  </diagram>
</mxfile>
